<svg width="26" height="15" viewBox="0 0 26 15" fill="none" xmlns="http://www.w3.org/2000/svg">
<path d="M1.70002 15.0002V3.94019C1.70002 2.67353 2.06002 1.73353 2.78002 1.1202C3.50002 0.506862 4.56002 0.200195 5.96002 0.200195H7.36002V2.6002H5.82002C5.46002 2.6002 5.18002 2.7002 4.98002 2.9002C4.78002 3.10019 4.68002 3.38019 4.68002 3.7402V15.0002H1.70002ZM0.400024 6.60019V4.2602H7.52002V6.60019H0.400024Z" fill="#F23764"/>
<path d="M9.05768 15.0002V4.04019H11.5977V8.7402H11.4177C11.4177 7.6202 11.5577 6.68686 11.8377 5.9402C12.131 5.19353 12.571 4.63353 13.1577 4.2602C13.7443 3.88686 14.4577 3.7002 15.2977 3.7002H15.4377C16.7177 3.7002 17.691 4.1202 18.3577 4.96019C19.0377 5.78686 19.3777 7.04686 19.3777 8.7402V15.0002H16.1777V8.56019C16.1777 7.97353 16.0043 7.49353 15.6577 7.12019C15.311 6.74686 14.8443 6.56019 14.2577 6.56019C13.6577 6.56019 13.171 6.75353 12.7977 7.1402C12.4377 7.51353 12.2577 8.00686 12.2577 8.6202V15.0002H9.05768Z" fill="#F23764"/>
<path d="M21.6046 15.0002V11.4202H25.1246V15.0002H21.6046Z" fill="#F23764"/>
</svg>
