<svg width="94" height="17" viewBox="0 0 94 17" fill="none" xmlns="http://www.w3.org/2000/svg">
<path d="M1.68002 16V4.82C1.68002 3.55333 2.03336 2.61333 2.74002 2C3.46002 1.38666 4.52002 1.08 5.92002 1.08H7.00002V3.48H5.78002C5.42002 3.48 5.14002 3.58 4.94002 3.78C4.75336 3.98 4.66002 4.26 4.66002 4.62V16H1.68002ZM0.400024 7.48V5.14H6.96002V7.48H0.400024ZM9.12002 16V5.04H12.32V16H9.12002ZM7.82002 7.4V5.04H12.32V7.4H7.82002ZM10.36 3.96C9.76002 3.96 9.31336 3.80666 9.02003 3.5C8.74002 3.18 8.60002 2.78 8.60002 2.29999C8.60002 1.80666 8.74002 1.40666 9.02003 1.09999C9.31336 0.779995 9.76002 0.619995 10.36 0.619995C10.9734 0.619995 11.42 0.779995 11.7 1.09999C11.98 1.40666 12.12 1.80666 12.12 2.29999C12.12 2.78 11.98 3.18 11.7 3.5C11.42 3.80666 10.9734 3.96 10.36 3.96Z" fill="#F23764"/>
<path d="M15.2881 16V5.04H17.8281V9.74H17.6481C17.6481 8.62 17.7881 7.68666 18.0681 6.94C18.3615 6.19333 18.8015 5.63333 19.3881 5.26C19.9748 4.88666 20.6882 4.7 21.5282 4.7H21.6681C22.9482 4.7 23.9215 5.12 24.5882 5.96C25.2682 6.78666 25.6082 8.04666 25.6082 9.74V16H22.4081V9.56C22.4081 8.97333 22.2348 8.49333 21.8881 8.12C21.5415 7.74666 21.0748 7.56 20.4881 7.56C19.8881 7.56 19.4015 7.75333 19.0282 8.14C18.6682 8.51333 18.4881 9.00666 18.4881 9.62V16H15.2881Z" fill="#F23764"/>
<path d="M34.955 16V12.76H34.415V9.24C34.415 8.68 34.2817 8.26 34.015 7.98C33.7484 7.7 33.3217 7.56 32.735 7.56C32.4417 7.56 32.055 7.56666 31.575 7.58C31.095 7.59333 30.6017 7.61333 30.095 7.64C29.5884 7.66666 29.1284 7.69333 28.715 7.72V5.02C29.0217 4.99333 29.3817 4.96666 29.795 4.94C30.2084 4.91333 30.635 4.89333 31.075 4.88C31.515 4.86666 31.9284 4.86 32.315 4.86C33.435 4.86 34.375 5.02 35.135 5.34C35.9084 5.66 36.495 6.14666 36.895 6.8C37.295 7.44 37.495 8.26666 37.495 9.28V16H34.955ZM31.455 16.28C30.6684 16.28 29.975 16.14 29.375 15.86C28.7884 15.58 28.3284 15.18 27.995 14.66C27.6617 14.1267 27.495 13.4933 27.495 12.76C27.495 11.96 27.7017 11.3067 28.115 10.8C28.5284 10.28 29.1084 9.9 29.855 9.66C30.6017 9.40666 31.4617 9.28 32.435 9.28H34.775V11.06H32.415C31.855 11.06 31.4217 11.2 31.115 11.48C30.8217 11.7467 30.675 12.1133 30.675 12.58C30.675 13.02 30.8217 13.38 31.115 13.66C31.4217 13.9267 31.855 14.06 32.415 14.06C32.775 14.06 33.095 14 33.375 13.88C33.6684 13.7467 33.9084 13.5267 34.095 13.22C34.2817 12.9133 34.3884 12.4867 34.415 11.94L35.175 12.74C35.1084 13.5 34.9217 14.14 34.615 14.66C34.3217 15.18 33.9084 15.58 33.375 15.86C32.855 16.14 32.215 16.28 31.455 16.28Z" fill="#F23764"/>
<path d="M40.21 16V5.04H42.75V9.74H42.57C42.57 8.62 42.71 7.68666 42.99 6.94C43.2834 6.19333 43.7234 5.63333 44.31 5.26C44.8967 4.88666 45.61 4.7 46.45 4.7H46.59C47.87 4.7 48.8434 5.12 49.51 5.96C50.19 6.78666 50.53 8.04666 50.53 9.74V16H47.33V9.56C47.33 8.97333 47.1567 8.49333 46.81 8.12C46.4634 7.74666 45.9967 7.56 45.41 7.56C44.81 7.56 44.3234 7.75333 43.95 8.14C43.59 8.51333 43.41 9.00666 43.41 9.62V16H40.21Z" fill="#F23764"/>
<path d="M58.1769 16.38C57.2302 16.38 56.4036 16.2267 55.6969 15.92C55.0036 15.6 54.4236 15.1733 53.9569 14.64C53.4902 14.1067 53.1436 13.5067 52.9169 12.84C52.6902 12.16 52.5769 11.46 52.5769 10.74V10.36C52.5769 9.61333 52.6969 8.9 52.9369 8.22C53.1769 7.52666 53.5302 6.91333 53.9969 6.38C54.4636 5.84666 55.0436 5.42666 55.7369 5.12C56.4436 4.81333 57.2502 4.66 58.1569 4.66C59.1436 4.66 60.0169 4.85333 60.7769 5.24C61.5369 5.61333 62.1436 6.14 62.5969 6.82C63.0502 7.5 63.3036 8.28 63.3569 9.16H60.2169C60.1636 8.66666 59.9636 8.25333 59.6169 7.92C59.2836 7.57333 58.7969 7.4 58.1569 7.4C57.6236 7.4 57.1769 7.53333 56.8169 7.8C56.4702 8.06666 56.2102 8.43333 56.0369 8.9C55.8636 9.36666 55.7769 9.92 55.7769 10.56C55.7769 11.1467 55.8569 11.68 56.0169 12.16C56.1769 12.6267 56.4302 12.9933 56.7769 13.26C57.1369 13.5133 57.6036 13.64 58.1769 13.64C58.6036 13.64 58.9636 13.5667 59.2569 13.42C59.5636 13.26 59.8036 13.0467 59.9769 12.78C60.1636 12.5 60.2769 12.18 60.3169 11.82H63.4369C63.3969 12.7267 63.1436 13.5267 62.6769 14.22C62.2102 14.9 61.5902 15.4333 60.8169 15.82C60.0436 16.1933 59.1636 16.38 58.1769 16.38Z" fill="#F23764"/>
<path d="M70.5035 16.38C69.5701 16.38 68.7435 16.22 68.0235 15.9C67.3168 15.58 66.7235 15.1533 66.2435 14.62C65.7768 14.0733 65.4168 13.4667 65.1635 12.8C64.9235 12.12 64.8035 11.4267 64.8035 10.72V10.32C64.8035 9.58666 64.9235 8.88666 65.1635 8.22C65.4168 7.54 65.7768 6.93333 66.2435 6.4C66.7101 5.86666 67.2901 5.44666 67.9835 5.14C68.6901 4.82 69.4901 4.66 70.3835 4.66C71.5568 4.66 72.5435 4.92666 73.3435 5.46C74.1568 5.98 74.7768 6.66666 75.2035 7.52C75.6301 8.36 75.8435 9.28 75.8435 10.28V11.36H66.1435V9.54H73.9035L72.8635 10.38C72.8635 9.72666 72.7701 9.16666 72.5835 8.7C72.3968 8.23333 72.1168 7.88 71.7435 7.64C71.3835 7.38666 70.9301 7.26 70.3835 7.26C69.8235 7.26 69.3501 7.38666 68.9635 7.64C68.5768 7.89333 68.2835 8.26666 68.0835 8.76C67.8835 9.24 67.7835 9.83333 67.7835 10.54C67.7835 11.1933 67.8768 11.7667 68.0635 12.26C68.2501 12.74 68.5435 13.1133 68.9435 13.38C69.3435 13.6467 69.8635 13.78 70.5035 13.78C71.0901 13.78 71.5701 13.6667 71.9435 13.44C72.3168 13.2133 72.5701 12.9333 72.7035 12.6H75.6435C75.4835 13.3333 75.1701 13.9867 74.7035 14.56C74.2368 15.1333 73.6501 15.58 72.9435 15.9C72.2368 16.22 71.4235 16.38 70.5035 16.38Z" fill="#F23764"/>
<path d="M82.9839 16.38C82.0506 16.38 81.2239 16.22 80.5039 15.9C79.7973 15.58 79.2039 15.1533 78.7239 14.62C78.2573 14.0733 77.8973 13.4667 77.6439 12.8C77.4039 12.12 77.2839 11.4267 77.2839 10.72V10.32C77.2839 9.58666 77.4039 8.88666 77.6439 8.22C77.8973 7.54 78.2573 6.93333 78.7239 6.4C79.1906 5.86666 79.7706 5.44666 80.4639 5.14C81.1706 4.82 81.9706 4.66 82.8639 4.66C84.0373 4.66 85.0239 4.92666 85.8239 5.46C86.6373 5.98 87.2573 6.66666 87.6839 7.52C88.1106 8.36 88.3239 9.28 88.3239 10.28V11.36H78.6239V9.54H86.3839L85.3439 10.38C85.3439 9.72666 85.2506 9.16666 85.0639 8.7C84.8773 8.23333 84.5973 7.88 84.2239 7.64C83.8639 7.38666 83.4106 7.26 82.8639 7.26C82.3039 7.26 81.8306 7.38666 81.4439 7.64C81.0573 7.89333 80.7639 8.26666 80.5639 8.76C80.3639 9.24 80.2639 9.83333 80.2639 10.54C80.2639 11.1933 80.3573 11.7667 80.5439 12.26C80.7306 12.74 81.0239 13.1133 81.4239 13.38C81.8239 13.6467 82.3439 13.78 82.9839 13.78C83.5706 13.78 84.0506 13.6667 84.4239 13.44C84.7973 13.2133 85.0506 12.9333 85.1839 12.6H88.1239C87.9639 13.3333 87.6506 13.9867 87.1839 14.56C86.7173 15.1333 86.1306 15.58 85.4239 15.9C84.7173 16.22 83.9039 16.38 82.9839 16.38Z" fill="#F23764"/>
<path d="M89.7491 16V12.42H93.2691V16H89.7491Z" fill="#F23764"/>
</svg>
