<svg width="94" height="17" viewBox="0 0 94 17" fill="none" xmlns="http://www.w3.org/2000/svg">
<path d="M1.68002 16.0001V4.82012C1.68002 3.55345 2.03336 2.61345 2.74002 2.00012C3.46002 1.38678 4.52002 1.08012 5.92002 1.08012H7.00002V3.48012H5.78002C5.42002 3.48012 5.14002 3.58012 4.94002 3.78012C4.75336 3.98012 4.66002 4.26012 4.66002 4.62012V16.0001H1.68002ZM0.400024 7.48012V5.14012H6.96002V7.48012H0.400024ZM9.12002 16.0001V5.04012H12.32V16.0001H9.12002ZM7.82002 7.40012V5.04012H12.32V7.40012H7.82002ZM10.36 3.96012C9.76002 3.96012 9.31336 3.80678 9.02003 3.50012C8.74002 3.18012 8.60002 2.78012 8.60002 2.30012C8.60002 1.80678 8.74002 1.40678 9.02003 1.10012C9.31336 0.780117 9.76002 0.620117 10.36 0.620117C10.9734 0.620117 11.42 0.780117 11.7 1.10012C11.98 1.40678 12.12 1.80678 12.12 2.30012C12.12 2.78012 11.98 3.18012 11.7 3.50012C11.42 3.80678 10.9734 3.96012 10.36 3.96012Z" fill="#F8FAFC"/>
<path d="M15.2881 16.0001V5.04012H17.8281V9.74012H17.6481C17.6481 8.62012 17.7881 7.68678 18.0681 6.94012C18.3615 6.19345 18.8015 5.63345 19.3881 5.26012C19.9748 4.88679 20.6882 4.70012 21.5282 4.70012H21.6681C22.9482 4.70012 23.9215 5.12012 24.5882 5.96012C25.2682 6.78678 25.6082 8.04678 25.6082 9.74012V16.0001H22.4081V9.56012C22.4081 8.97345 22.2348 8.49345 21.8881 8.12012C21.5415 7.74678 21.0748 7.56012 20.4881 7.56012C19.8881 7.56012 19.4015 7.75345 19.0282 8.14012C18.6682 8.51345 18.4881 9.00678 18.4881 9.62012V16.0001H15.2881Z" fill="#F8FAFC"/>
<path d="M34.955 16.0001V12.7601H34.415V9.24012C34.415 8.68012 34.2817 8.26012 34.015 7.98012C33.7484 7.70012 33.3217 7.56012 32.735 7.56012C32.4417 7.56012 32.055 7.56678 31.575 7.58012C31.095 7.59345 30.6017 7.61345 30.095 7.64012C29.5884 7.66678 29.1284 7.69345 28.715 7.72012V5.02012C29.0217 4.99345 29.3817 4.96678 29.795 4.94012C30.2084 4.91345 30.635 4.89345 31.075 4.88012C31.515 4.86678 31.9284 4.86012 32.315 4.86012C33.435 4.86012 34.375 5.02012 35.135 5.34012C35.9084 5.66012 36.495 6.14678 36.895 6.80012C37.295 7.44012 37.495 8.26678 37.495 9.28012V16.0001H34.955ZM31.455 16.2801C30.6684 16.2801 29.975 16.1401 29.375 15.8601C28.7884 15.5801 28.3284 15.1801 27.995 14.6601C27.6617 14.1268 27.495 13.4935 27.495 12.7601C27.495 11.9601 27.7017 11.3068 28.115 10.8001C28.5284 10.2801 29.1084 9.90012 29.855 9.66012C30.6017 9.40678 31.4617 9.28012 32.435 9.28012H34.775V11.0601H32.415C31.855 11.0601 31.4217 11.2001 31.115 11.4801C30.8217 11.7468 30.675 12.1135 30.675 12.5801C30.675 13.0201 30.8217 13.3801 31.115 13.6601C31.4217 13.9268 31.855 14.0601 32.415 14.0601C32.775 14.0601 33.095 14.0001 33.375 13.8801C33.6684 13.7468 33.9084 13.5268 34.095 13.2201C34.2817 12.9135 34.3884 12.4868 34.415 11.9401L35.175 12.7401C35.1084 13.5001 34.9217 14.1401 34.615 14.6601C34.3217 15.1801 33.9084 15.5801 33.375 15.8601C32.855 16.1401 32.215 16.2801 31.455 16.2801Z" fill="#F8FAFC"/>
<path d="M40.21 16.0001V5.04012H42.75V9.74012H42.57C42.57 8.62012 42.71 7.68678 42.99 6.94012C43.2834 6.19345 43.7234 5.63345 44.31 5.26012C44.8967 4.88679 45.61 4.70012 46.45 4.70012H46.59C47.87 4.70012 48.8434 5.12012 49.51 5.96012C50.19 6.78678 50.53 8.04678 50.53 9.74012V16.0001H47.33V9.56012C47.33 8.97345 47.1567 8.49345 46.81 8.12012C46.4634 7.74678 45.9967 7.56012 45.41 7.56012C44.81 7.56012 44.3234 7.75345 43.95 8.14012C43.59 8.51345 43.41 9.00678 43.41 9.62012V16.0001H40.21Z" fill="#F8FAFC"/>
<path d="M58.1769 16.3801C57.2302 16.3801 56.4036 16.2268 55.6969 15.9201C55.0036 15.6001 54.4236 15.1735 53.9569 14.6401C53.4902 14.1068 53.1436 13.5068 52.9169 12.8401C52.6902 12.1601 52.5769 11.4601 52.5769 10.7401V10.3601C52.5769 9.61345 52.6969 8.90012 52.9369 8.22012C53.1769 7.52678 53.5302 6.91345 53.9969 6.38012C54.4636 5.84678 55.0436 5.42678 55.7369 5.12012C56.4436 4.81345 57.2502 4.66012 58.1569 4.66012C59.1436 4.66012 60.0169 4.85345 60.7769 5.24012C61.5369 5.61345 62.1436 6.14012 62.5969 6.82012C63.0502 7.50012 63.3036 8.28012 63.3569 9.16012H60.2169C60.1636 8.66678 59.9636 8.25345 59.6169 7.92012C59.2836 7.57345 58.7969 7.40012 58.1569 7.40012C57.6236 7.40012 57.1769 7.53345 56.8169 7.80012C56.4702 8.06678 56.2102 8.43345 56.0369 8.90012C55.8636 9.36678 55.7769 9.92012 55.7769 10.5601C55.7769 11.1468 55.8569 11.6801 56.0169 12.1601C56.1769 12.6268 56.4302 12.9935 56.7769 13.2601C57.1369 13.5135 57.6036 13.6401 58.1769 13.6401C58.6036 13.6401 58.9636 13.5668 59.2569 13.4201C59.5636 13.2601 59.8036 13.0468 59.9769 12.7801C60.1636 12.5001 60.2769 12.1801 60.3169 11.8201H63.4369C63.3969 12.7268 63.1436 13.5268 62.6769 14.2201C62.2102 14.9001 61.5902 15.4335 60.8169 15.8201C60.0436 16.1935 59.1636 16.3801 58.1769 16.3801Z" fill="#F8FAFC"/>
<path d="M70.5035 16.3801C69.5701 16.3801 68.7435 16.2201 68.0235 15.9001C67.3168 15.5801 66.7235 15.1535 66.2435 14.6201C65.7768 14.0735 65.4168 13.4668 65.1635 12.8001C64.9235 12.1201 64.8035 11.4268 64.8035 10.7201V10.3201C64.8035 9.58678 64.9235 8.88678 65.1635 8.22012C65.4168 7.54012 65.7768 6.93345 66.2435 6.40012C66.7101 5.86678 67.2901 5.44678 67.9835 5.14012C68.6901 4.82012 69.4901 4.66012 70.3835 4.66012C71.5568 4.66012 72.5435 4.92678 73.3435 5.46012C74.1568 5.98012 74.7768 6.66678 75.2035 7.52012C75.6301 8.36012 75.8435 9.28012 75.8435 10.2801V11.3601H66.1435V9.54012H73.9035L72.8635 10.3801C72.8635 9.72678 72.7701 9.16678 72.5835 8.70012C72.3968 8.23345 72.1168 7.88012 71.7435 7.64012C71.3835 7.38678 70.9301 7.26012 70.3835 7.26012C69.8235 7.26012 69.3501 7.38678 68.9635 7.64012C68.5768 7.89345 68.2835 8.26678 68.0835 8.76012C67.8835 9.24012 67.7835 9.83345 67.7835 10.5401C67.7835 11.1935 67.8768 11.7668 68.0635 12.2601C68.2501 12.7401 68.5435 13.1135 68.9435 13.3801C69.3435 13.6468 69.8635 13.7801 70.5035 13.7801C71.0901 13.7801 71.5701 13.6668 71.9435 13.4401C72.3168 13.2135 72.5701 12.9335 72.7035 12.6001H75.6435C75.4835 13.3335 75.1701 13.9868 74.7035 14.5601C74.2368 15.1335 73.6501 15.5801 72.9435 15.9001C72.2368 16.2201 71.4235 16.3801 70.5035 16.3801Z" fill="#F8FAFC"/>
<path d="M82.9839 16.3801C82.0506 16.3801 81.2239 16.2201 80.5039 15.9001C79.7973 15.5801 79.2039 15.1535 78.7239 14.6201C78.2573 14.0735 77.8973 13.4668 77.6439 12.8001C77.4039 12.1201 77.2839 11.4268 77.2839 10.7201V10.3201C77.2839 9.58678 77.4039 8.88678 77.6439 8.22012C77.8973 7.54012 78.2573 6.93345 78.7239 6.40012C79.1906 5.86678 79.7706 5.44678 80.4639 5.14012C81.1706 4.82012 81.9706 4.66012 82.8639 4.66012C84.0373 4.66012 85.0239 4.92678 85.8239 5.46012C86.6373 5.98012 87.2573 6.66678 87.6839 7.52012C88.1106 8.36012 88.3239 9.28012 88.3239 10.2801V11.3601H78.6239V9.54012H86.3839L85.3439 10.3801C85.3439 9.72678 85.2506 9.16678 85.0639 8.70012C84.8773 8.23345 84.5973 7.88012 84.2239 7.64012C83.8639 7.38678 83.4106 7.26012 82.8639 7.26012C82.3039 7.26012 81.8306 7.38678 81.4439 7.64012C81.0573 7.89345 80.7639 8.26678 80.5639 8.76012C80.3639 9.24012 80.2639 9.83345 80.2639 10.5401C80.2639 11.1935 80.3573 11.7668 80.5439 12.2601C80.7306 12.7401 81.0239 13.1135 81.4239 13.3801C81.8239 13.6468 82.3439 13.7801 82.9839 13.7801C83.5706 13.7801 84.0506 13.6668 84.4239 13.4401C84.7973 13.2135 85.0506 12.9335 85.1839 12.6001H88.1239C87.9639 13.3335 87.6506 13.9868 87.1839 14.5601C86.7173 15.1335 86.1306 15.5801 85.4239 15.9001C84.7173 16.2201 83.9039 16.3801 82.9839 16.3801Z" fill="#F8FAFC"/>
<path d="M89.7491 16.0001V12.4201H93.2691V16.0001H89.7491Z" fill="#F8FAFC"/>
</svg>
